<svg width="20" height="20" viewBox="0 0 20 20" fill="none" xmlns="http://www.w3.org/2000/svg">
<path fill-rule="evenodd" clip-rule="evenodd" d="M2.5 4.16667C2.5 3.24619 3.24619 2.5 4.16667 2.5H15.8333C16.7538 2.5 17.5 3.24619 17.5 4.16667V15.8333C17.5 16.7538 16.7538 17.5 15.8333 17.5H4.16667C3.24619 17.5 2.5 16.7538 2.5 15.8333V4.16667ZM4.79167 14.1667C4.79167 13.5914 5.25804 13.125 5.83333 13.125H8.33333C8.90863 13.125 9.375 13.5914 9.375 14.1667C9.375 14.742 8.90863 15.2083 8.33333 15.2083H5.83333C5.25804 15.2083 4.79167 14.742 4.79167 14.1667ZM11.6667 4.16667H8.33333V8.33333C8.33333 8.79357 8.70643 9.16667 9.16667 9.16667H10.8333C11.2936 9.16667 11.6667 8.79357 11.6667 8.33333V4.16667Z" fill="#34404B"/>
</svg>
