<svg width="20" height="20" viewBox="0 0 20 20" fill="none" xmlns="http://www.w3.org/2000/svg">
<path fill-rule="evenodd" clip-rule="evenodd" d="M5.66663 3.33325C3.45749 3.33325 1.66663 5.12411 1.66663 7.33325V12.6666C1.66663 14.8757 3.45749 16.6666 5.66663 16.6666H14.3333C16.5424 16.6666 18.3333 14.8757 18.3333 12.6666V7.33325C18.3333 5.12411 16.5424 3.33325 14.3333 3.33325H5.66663ZM4.65574 13.0685C5.16294 12.6322 5.70524 12.4166 6.24996 12.4166C6.79468 12.4166 7.33698 12.6322 7.84418 13.0685C8.15819 13.3386 8.63173 13.303 8.90186 12.989C9.17199 12.675 9.13642 12.2015 8.8224 11.9313C8.09512 11.3057 7.21685 10.9166 6.24996 10.9166C5.28307 10.9166 4.4048 11.3057 3.67752 11.9313C3.3635 12.2015 3.32793 12.675 3.59806 12.989C3.86819 13.303 4.34172 13.3386 4.65574 13.0685ZM6.24996 9.24992C5.97382 9.24992 5.74996 9.02606 5.74996 8.74992C5.74996 8.47378 5.97382 8.24992 6.24996 8.24992C6.5261 8.24992 6.74996 8.47378 6.74996 8.74992C6.74996 9.02606 6.5261 9.24992 6.24996 9.24992ZM4.24996 8.74992C4.24996 9.85449 5.14539 10.7499 6.24996 10.7499C7.35453 10.7499 8.24996 9.85449 8.24996 8.74992C8.24996 7.64535 7.35453 6.74992 6.24996 6.74992C5.14539 6.74992 4.24996 7.64535 4.24996 8.74992ZM11.6666 6.74992C11.2524 6.74992 10.9166 7.08571 10.9166 7.49992C10.9166 7.91413 11.2524 8.24992 11.6666 8.24992H15C15.4142 8.24992 15.75 7.91413 15.75 7.49992C15.75 7.08571 15.4142 6.74992 15 6.74992H11.6666ZM10.9166 9.99992C10.9166 9.5857 11.2524 9.24992 11.6666 9.24992H15C15.4142 9.24992 15.75 9.5857 15.75 9.99992C15.75 10.4141 15.4142 10.7499 15 10.7499H11.6666C11.2524 10.7499 10.9166 10.4141 10.9166 9.99992ZM11.6666 11.7499C11.2524 11.7499 10.9166 12.0857 10.9166 12.4999C10.9166 12.9141 11.2524 13.2499 11.6666 13.2499H15C15.4142 13.2499 15.75 12.9141 15.75 12.4999C15.75 12.0857 15.4142 11.7499 15 11.7499H11.6666Z" fill="#34404B"/>
</svg>
