<svg width="20" height="20" viewBox="0 0 20 20" fill="none" xmlns="http://www.w3.org/2000/svg">
<g clip-path="url(#clip0_1162_11266)">
<path fill-rule="evenodd" clip-rule="evenodd" d="M5.83325 6.66675V5.83342C5.83325 3.53223 7.69873 1.66675 9.99992 1.66675C12.3011 1.66675 14.1666 3.53223 14.1666 5.83342V6.66675H14.9999C15.9204 6.66675 16.6666 7.41294 16.6666 8.33342V16.6667C16.6666 17.5872 15.9204 18.3334 14.9999 18.3334H4.99992C4.07944 18.3334 3.33325 17.5872 3.33325 16.6667V8.33342C3.33325 7.41294 4.07944 6.66675 4.99992 6.66675H5.83325ZM7.49992 5.83342C7.49992 4.4527 8.61921 3.33341 9.99992 3.33341C11.3806 3.33341 12.4999 4.4527 12.4999 5.83342V6.66675H7.49992V5.83342ZM9.99992 10.6251C10.5752 10.6251 11.0416 11.0915 11.0416 11.6667V13.3334C11.0416 13.9087 10.5752 14.3751 9.99992 14.3751C9.42462 14.3751 8.95825 13.9087 8.95825 13.3334V11.6667C8.95825 11.0915 9.42462 10.6251 9.99992 10.6251Z" fill="#34404B"/>
</g>
<defs>
<clipPath id="clip0_1162_11266">
<rect width="16.6667" height="16.6667" fill="white" transform="translate(1.66663 1.66675)"/>
</clipPath>
</defs>
</svg>
