<svg xmlns="http://www.w3.org/2000/svg" xmlns:xlink="http://www.w3.org/1999/xlink" width="56" height="56" viewBox="0 0 56 56">
  <defs>
    <radialGradient id="radial-gradient" cx="0.5" cy="0.5" r="0.5" gradientUnits="objectBoundingBox">
      <stop offset="0" stop-color="#3bac2b"/>
      <stop offset="1" stop-color="#1a5613"/>
    </radialGradient>
    <linearGradient id="linear-gradient" x1="0.375" y1="0.167" x2="0.728" y2="0.697" gradientUnits="objectBoundingBox">
      <stop offset="0" stop-color="#ffcb05"/>
      <stop offset="0.47" stop-color="#fffcd5"/>
      <stop offset="1" stop-color="#ffcb05"/>
    </linearGradient>
    <linearGradient id="linear-gradient-2" x1="0.139" y1="0.554" x2="0.882" y2="0.395" xlink:href="#linear-gradient"/>
    <linearGradient id="linear-gradient-3" x1="0.485" y1="0.853" x2="0.537" y2="-0.282" xlink:href="#linear-gradient"/>
    <linearGradient id="linear-gradient-4" x1="0.658" y1="0.57" x2="-0.53" y2="0.307" xlink:href="#linear-gradient"/>
    <linearGradient id="linear-gradient-5" x1="0.683" y1="0.309" x2="0.303" y2="1.046" xlink:href="#linear-gradient"/>
    <linearGradient id="linear-gradient-6" x1="0.349" y1="0.248" x2="0.714" y2="0.904" xlink:href="#linear-gradient"/>
  </defs>
  <g id="app-icon" transform="translate(-481 -99)">
    <rect id="Rectangle_13765" data-name="Rectangle 13765" width="56" height="56" rx="12" transform="translate(481 99)" fill="url(#radial-gradient)"/>
    <g id="Layer_1" data-name="Layer 1" transform="translate(481.431 100.938)">
      <path id="Path_79710" data-name="Path 79710" d="M166.016,60.21l-4.166,5.753,6.173.829-.218-1.006Z" transform="translate(-126.99 -47.242)" fill="#ffcb29" fill-rule="evenodd"/>
      <path id="Path_79711" data-name="Path 79711" d="M138.953,60.856l1.609-.646h5.781l-3.662,5.066L140.973,67.6l-.788,2.684c-1.4-.978-2.692-2.369-3.267-2.759S137.671,63.721,138.953,60.856Z" transform="translate(-107.319 -47.242)" fill-rule="evenodd" fill="url(#linear-gradient)"/>
      <path id="Path_79712" data-name="Path 79712" d="M73.84,60.28l4.185,5.738L80.719,60.4,79.7,60.3Z" transform="translate(-57.936 -47.297)" fill="#ffcb29" fill-rule="evenodd"/>
      <path id="Path_79713" data-name="Path 79713" d="M65.658,67.542l-.118-1.723,1.788-5.5,3.683,5.051L72.7,67.714l2.313,1.579c-1.363,1.034-3.093,1.826-3.634,2.255S67.985,69.646,65.658,67.542Z" transform="translate(-51.424 -47.328)" fill-rule="evenodd" fill="url(#linear-gradient-2)"/>
      <path id="Path_79714" data-name="Path 79714" d="M40.73,138.7l6.75-2.208-4.506-4.3-.416.939Z" transform="translate(-31.957 -103.726)" fill="#ffcb29" fill-rule="evenodd"/>
      <path id="Path_79715" data-name="Path 79715" d="M47.09,149.713l-1.682-.431-4.678-3.39,5.942-1.938,2.75-.881,2.216-1.712c.56,1.615.782,3.5,1.021,4.153S49.811,148.149,47.09,149.713Z" transform="translate(-31.957 -110.913)" fill-rule="evenodd" fill="url(#linear-gradient-3)"/>
      <path id="Path_79716" data-name="Path 79716" d="M107.6,199.571l-.013-7.1-5.482,2.957.767.687Z" transform="translate(-80.117 -151.015)" fill="#ffcb29" fill-rule="evenodd"/>
      <path id="Path_79717" data-name="Path 79717" d="M129.783,177.677l-.924,1.469-4.676,3.4-.013-6.246.013-2.89-.943-2.636c1.71-.034,3.575.34,4.265.312S129.137,174.608,129.783,177.677Z" transform="translate(-96.696 -133.988)" fill-rule="evenodd" fill="url(#linear-gradient-4)"/>
      <path id="Path_79718" data-name="Path 79718" d="M189.8,154.334l-6.759-2.184,1.12,6.128.89-.517Z" transform="translate(-143.616 -119.379)" fill="#ffcb29" fill-rule="evenodd"/>
      <path id="Path_79719" data-name="Path 79719" d="M169.686,129.439l1.111,1.331,1.786,5.5-5.949-1.921-2.744-.9-2.8.082c.5-1.637,1.428-3.3,1.615-3.959S166.559,129.1,169.686,129.439Z" transform="translate(-126.394 -101.314)" fill-rule="evenodd" fill="url(#linear-gradient-5)"/>
      <path id="Path_79720" data-name="Path 79720" d="M27.474,0l8.236,17.552,19.238,2.41L40.8,33.219l3.655,19.04L27.474,42.9,10.494,52.259l3.655-19.04L0,19.962l19.238-2.41Z" fill-rule="evenodd" fill="url(#linear-gradient-6)"/>
      <path id="Path_79721" data-name="Path 79721" d="M14.17,88.505l13.3,4.321L19.238,81.49l-3.631.454L0,83.9Z" transform="translate(0 -63.938)" fill="#ffcb29" fill-rule="evenodd"/>
      <path id="Path_79722" data-name="Path 79722" d="M133.395,12.436,127.56,0V28.89L135.8,17.552Z" transform="translate(-100.086)" fill="#ffcb29" fill-rule="evenodd"/>
      <path id="Path_79723" data-name="Path 79723" d="M141.14,97.194l-13.58,4.413,13.326,4.329,3.584-3.358,10.565-9.9Z" transform="translate(-100.086 -72.718)" fill="#ffcb29" fill-rule="evenodd"/>
      <path id="Path_79724" data-name="Path 79724" d="M134.5,143.672l-6.94-9.552v14.013l2.154,1.189,14.827,8.17Z" transform="translate(-100.086 -105.233)" fill="#ffcb29" fill-rule="evenodd"/>
      <path id="Path_79725" data-name="Path 79725" d="M58.914,143.461,65.7,134.12l-13.326,4.331-.319,1.656L48.72,157.491Z" transform="translate(-38.226 -105.233)" fill="#ffcb29" fill-rule="evenodd"/>
      <path id="Path_79726" data-name="Path 79726" d="M65.364,66.393a3.487,3.487,0,0,0,2.3-.877,3.9,3.9,0,0,0,1.215-2.839V62.43h17.89v.248a3.9,3.9,0,0,0,1.215,2.839,3.483,3.483,0,0,0,2.3.877h.2l.05.192a26.918,26.918,0,0,1-1.949,19.09A22.642,22.642,0,0,1,78.139,95.24l-.325.159-.327-.159a22.657,22.657,0,0,1-10.444-9.565,26.933,26.933,0,0,1-1.951-19.09l.052-.192Z" transform="translate(-50.361 -48.984)" fill="#fff7ae" stroke="#a35e4d" stroke-width="0.01" fill-rule="evenodd"/>
      <path id="Path_79727" data-name="Path 79727" d="M92.129,68.887a4.032,4.032,0,0,1-2.442-1.006A4.364,4.364,0,0,1,88.31,64.93H71.441a4.364,4.364,0,0,1-1.378,2.951,4.032,4.032,0,0,1-2.44,1.006A26.36,26.36,0,0,0,69.578,87.38a22.119,22.119,0,0,0,10.207,9.337l.09.045.09-.045A22.129,22.129,0,0,0,90.173,87.38,26.36,26.36,0,0,0,92.129,68.887Z" transform="translate(-52.401 -50.945)" fill="#ec3237" fill-rule="evenodd"/>
      <path id="Path_79728" data-name="Path 79728" d="M108.514,181.04a4.028,4.028,0,0,0-.465,1.292c-.162-.054-.351-.067-.508-.129a4.575,4.575,0,0,1,.756-1.723l.015.08.037.127.043.123.054.114.062.11h0Zm2.139-.926h.719c-.084-.233-.194-.532-.379-1.008C110.83,179.6,110.729,179.9,110.653,180.114Zm.874.431H110.5c-.067.183-.142.39-.291.831a2.391,2.391,0,0,0,.816.14,3.647,3.647,0,0,0,.849-.093c-.17-.431-.258-.659-.338-.879Zm3.063,1.723c-.159.045-.327.08-.5.118a3.541,3.541,0,0,0-1.671-2.423l-.241-.646a3.429,3.429,0,0,1,.687.317l.1.062a4.312,4.312,0,0,1,1.626,2.57Zm-4.069-4.049v-.489H111.6v.536h-.037l-.118-.019-.121-.015-.123-.013h-.526l-.136.011Zm-2.251,1.842v-.134l.037-.192.062-.181.082-.168.1-.155.116-.144.129-.129.14-.121.149-.108.157-.095.073-.039-.271-.47-.913.549.3.513a4.43,4.43,0,0,0-.862.862l-.517-.3-.53.933.515.3c-.084.2-.282.734-.336.952.168.084.353.095.528.172a4.9,4.9,0,0,1,1.042-2.038Zm7.131,1.966a4.585,4.585,0,0,0-.323-1.055l.515-.293-.532-.933-.515.3a4.365,4.365,0,0,0-.862-.862l.3-.513-.928-.541-.172.3h0l.368.121.08,1.058a4.116,4.116,0,0,1,1.508,2.585c.187-.067.373-.11.549-.164Zm-5.311-2.283-.457,1.292a1.234,1.234,0,0,1-.373-.911,1.31,1.31,0,0,1,1.137-1.236l-.114.3a3.4,3.4,0,0,0-.446.118l-.024.015-.09.078-.08.082-.069.088-.058.1-.047.1-.034.112-.022.118v.054a2.842,2.842,0,0,1,.67-.3Zm2.6,1.387-.842-2.259a1.921,1.921,0,0,1,1.137.666h.194l-.065-.877-.261-.086c-.062-.019-.123.052-.2.052a2.271,2.271,0,0,1-.485-.078,4.168,4.168,0,0,0-1.889-.136c-.831.174-1.863.709-1.863,1.723a1.54,1.54,0,0,0,1.014,1.46l-.03.086a.586.586,0,0,1-.258.362c-.08.037-.155.047-.364-.022l-.123.431a13.307,13.307,0,0,0,2.05.228l.043-.394c-.131,0-.737-.017-.737-.215a1.963,1.963,0,0,1,.058-.271,4.912,4.912,0,0,0,1.908-.032,1.617,1.617,0,0,1,.067.274c0,.215-.646.243-.762.243l.045.411a16.714,16.714,0,0,0,2.225-.2l-.1-.489a.6.6,0,0,1-.394,0,.991.991,0,0,1-.215-.411l-.034-.09a2.469,2.469,0,0,0,.625-.377l-.2-.282c-.187.11-.37.209-.549.3Z" transform="translate(-83.577 -139.45)" fill="#fff7ae" fill-rule="evenodd"/>
      <path id="Path_79729" data-name="Path 79729" d="M120.216,67.85l.474,1.469,1.542,0-1.249.9.478,1.467-1.245-.909-1.247.909.48-1.467-1.249-.9,1.542,0Z" transform="translate(-92.742 -53.236)" fill="#fff7ae" fill-rule="evenodd"/>
      <path id="Path_79730" data-name="Path 79730" d="M127.56,75.307l2.016-.657-1.542,0Z" transform="translate(-100.086 -58.572)" fill="#fff7ae" fill-rule="evenodd"/>
      <path id="Path_79731" data-name="Path 79731" d="M128.327,77.948l-.767-.248,1.245,1.714Z" transform="translate(-100.086 -60.965)" fill="#fff7ae" fill-rule="evenodd"/>
      <path id="Path_79732" data-name="Path 79732" d="M123.017,78.506V77.7l-1.247,1.714Z" transform="translate(-95.543 -60.965)" fill="#fff7ae" fill-rule="evenodd"/>
      <path id="Path_79733" data-name="Path 79733" d="M119.449,75.555l.767-.248L118.2,74.65Z" transform="translate(-92.742 -58.572)" fill="#fff7ae" fill-rule="evenodd"/>
      <path id="Path_79734" data-name="Path 79734" d="M125.36,69.319l.474.653V67.85Z" transform="translate(-98.359 -53.236)" fill="#fff7ae" fill-rule="evenodd"/>
      <path id="Path_79735" data-name="Path 79735" d="M153.017,108.678a2.782,2.782,0,0,1,.319-.909l.431-.769.521.713a2.664,2.664,0,0,1,.508,1.077l.457-.153.228-.08v.241a24.707,24.707,0,0,1-2.768,11.5,19.716,19.716,0,0,1-3.358,4.5,1.383,1.383,0,0,1-2.072-.142c-.431-.454-.862-1.374-.327-1.908a16.652,16.652,0,0,0,2.97-3.954,21.6,21.6,0,0,0,2.393-10.168v-.265Z" transform="translate(-115.109 -83.954)" fill="#fff7ae" fill-rule="evenodd"/>
      <path id="Path_79736" data-name="Path 79736" d="M149.878,125.862a19.517,19.517,0,0,0,3.313-4.471,24.563,24.563,0,0,0,2.748-11.415c-.258.09-.547.185-.659.228a2.242,2.242,0,0,0-.5-1.2l-.366-.5-.3.538a2.484,2.484,0,0,0-.321,1.077l-.088-.043-.569-.258a21.822,21.822,0,0,1-2.412,10.25,16.767,16.767,0,0,1-3,3.993c-.362.36-.215,1.107.332,1.669A1.212,1.212,0,0,0,149.878,125.862Z" transform="translate(-115.746 -85.131)" fill="#338c26" fill-rule="evenodd"/>
      <path id="Path_79737" data-name="Path 79737" d="M179.792,119.172a.414.414,0,0,0,.5-.058,1.47,1.47,0,0,0,.467-1.144,1.964,1.964,0,0,0-.915.646C179.71,118.821,179.656,119.032,179.792,119.172Z" transform="translate(-141.006 -92.561)" fill="#fff7ae" fill-rule="evenodd"/>
      <path id="Path_79738" data-name="Path 79738" d="M176.3,118.768a.416.416,0,0,1-.491-.106,1.475,1.475,0,0,1-.355-1.182,2.111,2.111,0,0,1,.862.732C176.41,118.428,176.445,118.643,176.3,118.768Z" transform="translate(-137.661 -92.177)" fill="#fff7ae" fill-rule="evenodd"/>
      <path id="Path_79739" data-name="Path 79739" d="M179.356,124.343a.414.414,0,0,0,.5-.037c.215-.14.431-.431.508-1.126a2.055,2.055,0,0,0-.939.614C179.289,124,179.222,124.2,179.356,124.343Z" transform="translate(-140.668 -96.649)" fill="#fff7ae" fill-rule="evenodd"/>
      <path id="Path_79740" data-name="Path 79740" d="M176.012,123.668a.418.418,0,0,1-.487-.123,1.469,1.469,0,0,1-.31-1.2,2.05,2.05,0,0,1,.821.762C176.139,123.332,176.165,123.548,176.012,123.668Z" transform="translate(-137.473 -95.998)" fill="#fff7ae" fill-rule="evenodd"/>
      <path id="Path_79741" data-name="Path 79741" d="M178.742,129.5a.411.411,0,0,0,.5-.022c.215-.129.431-.414.551-1.1a2.094,2.094,0,0,0-.961.577C178.677,129.152,178.608,129.348,178.742,129.5Z" transform="translate(-140.188 -100.721)" fill="#fff7ae" fill-rule="evenodd"/>
      <path id="Path_79742" data-name="Path 79742" d="M175.5,128.546c-.084.062-.3.052-.482-.14a1.439,1.439,0,0,1-.265-1.206,2.042,2.042,0,0,1,.793.793C175.636,128.217,175.656,128.434,175.5,128.546Z" transform="translate(-137.102 -99.803)" fill="#fff7ae" fill-rule="evenodd"/>
      <path id="Path_79743" data-name="Path 79743" d="M177.86,134.657a.414.414,0,0,0,.5,0c.215-.123.452-.4.594-1.077a2.035,2.035,0,0,0-.984.538C177.819,134.3,177.742,134.5,177.86,134.657Z" transform="translate(-139.507 -104.809)" fill="#fff7ae" fill-rule="evenodd"/>
      <path id="Path_79744" data-name="Path 79744" d="M174.769,133.4a.414.414,0,0,1-.474-.159,1.461,1.461,0,0,1-.215-1.217,2.037,2.037,0,0,1,.76.825C174.922,133.071,174.932,133.289,174.769,133.4Z" transform="translate(-136.564 -103.585)" fill="#fff7ae" fill-rule="evenodd"/>
      <path id="Path_79745" data-name="Path 79745" d="M176.791,139.728a.411.411,0,0,0,.5.019,1.514,1.514,0,0,0,.646-1.058,2.035,2.035,0,0,0-1,.5C176.754,139.371,176.668,139.571,176.791,139.728Z" transform="translate(-138.667 -108.818)" fill="#fff7ae" fill-rule="evenodd"/>
      <path id="Path_79746" data-name="Path 79746" d="M173.789,138.212c-.088.054-.3.026-.47-.179a1.446,1.446,0,0,1-.17-1.223,2.028,2.028,0,0,1,.728.862C173.955,137.893,173.955,138.111,173.789,138.212Z" transform="translate(-135.821 -107.343)" fill="#fff7ae" fill-rule="evenodd"/>
      <path id="Path_79747" data-name="Path 79747" d="M175.448,144.781a.418.418,0,0,0,.5.041,1.507,1.507,0,0,0,.678-1.032,2.047,2.047,0,0,0-1.023.459C175.438,144.423,175.343,144.619,175.448,144.781Z" transform="translate(-137.625 -112.82)" fill="#fff7ae" fill-rule="evenodd"/>
      <path id="Path_79748" data-name="Path 79748" d="M172.647,142.968a.411.411,0,0,1-.461-.2,1.468,1.468,0,0,1-.121-1.23,2.066,2.066,0,0,1,.691.883C172.812,142.656,172.806,142.873,172.647,142.968Z" transform="translate(-134.954 -111.054)" fill="#fff7ae" fill-rule="evenodd"/>
      <path id="Path_79749" data-name="Path 79749" d="M173.876,149.779a.411.411,0,0,0,.5.062c.228-.095.5-.34.722-1a2.046,2.046,0,0,0-1.042.414C173.887,149.422,173.786,149.613,173.876,149.779Z" transform="translate(-136.4 -116.782)" fill="#fff7ae" fill-rule="evenodd"/>
      <path id="Path_79750" data-name="Path 79750" d="M171.148,147.727c-.093.047-.3,0-.452-.215a1.436,1.436,0,0,1-.067-1.232,2.007,2.007,0,0,1,.646.911C171.34,147.413,171.323,147.63,171.148,147.727Z" transform="translate(-133.805 -114.774)" fill="#fff7ae" fill-rule="evenodd"/>
      <path id="Path_79751" data-name="Path 79751" d="M172.1,154.705a.411.411,0,0,0,.493.084c.235-.086.515-.319.767-.969a2.059,2.059,0,0,0-1.06.368C172.115,154.348,172.005,154.535,172.1,154.705Z" transform="translate(-135.004 -120.69)" fill="#fff7ae" fill-rule="evenodd"/>
      <path id="Path_79752" data-name="Path 79752" d="M169.512,152.291c-.095.043-.3-.011-.431-.237a1.466,1.466,0,0,1-.013-1.234,2.043,2.043,0,0,1,.612.939C169.717,152,169.689,152.211,169.512,152.291Z" transform="translate(-132.558 -118.336)" fill="#fff7ae" fill-rule="evenodd"/>
      <path id="Path_79753" data-name="Path 79753" d="M170.05,159.547a.411.411,0,0,0,.489.106c.237-.075.528-.293.81-.933a2.01,2.01,0,0,0-1.077.319C170.084,159.19,169.966,159.37,170.05,159.547Z" transform="translate(-133.402 -124.534)" fill="#fff7ae" fill-rule="evenodd"/>
      <path id="Path_79754" data-name="Path 79754" d="M167.529,156.813c-.095.037-.3-.026-.431-.258a1.438,1.438,0,0,1,.045-1.234,2.052,2.052,0,0,1,.569.967C167.748,156.526,167.71,156.742,167.529,156.813Z" transform="translate(-131.019 -121.866)" fill="#fff7ae" fill-rule="evenodd"/>
      <path id="Path_79755" data-name="Path 79755" d="M167.649,164.376a.411.411,0,0,0,.48.144c.241-.058.547-.254.879-.862a2.038,2.038,0,0,0-1.1.237C167.709,164.028,167.578,164.2,167.649,164.376Z" transform="translate(-131.525 -128.407)" fill="#fff7ae" fill-rule="evenodd"/>
      <path id="Path_79756" data-name="Path 79756" d="M165.324,161.146c-.1.03-.3-.047-.409-.289a1.448,1.448,0,0,1,.136-1.228,2.038,2.038,0,0,1,.493,1.006C165.563,160.877,165.516,161.088,165.324,161.146Z" transform="translate(-129.331 -125.248)" fill="#fff7ae" fill-rule="evenodd"/>
      <path id="Path_79757" data-name="Path 79757" d="M165.1,168.922a.409.409,0,0,0,.474.164c.258-.052.558-.23.913-.831a2.037,2.037,0,0,0-1.1.192C165.18,168.573,165.042,168.739,165.1,168.922Z" transform="translate(-129.532 -132.007)" fill="#fff7ae" fill-rule="evenodd"/>
      <path id="Path_79758" data-name="Path 79758" d="M162.873,165.445c-.1.026-.293-.06-.4-.306a1.434,1.434,0,0,1,.187-1.219,2.084,2.084,0,0,1,.452,1.025C163.123,165.189,163.062,165.4,162.873,165.445Z" transform="translate(-127.429 -128.614)" fill="#fff7ae" fill-rule="evenodd"/>
      <path id="Path_79759" data-name="Path 79759" d="M162.226,173.351a.413.413,0,0,0,.463.19c.248-.03.571-.194.963-.773a2.041,2.041,0,0,0-1.114.123C162.325,173.01,162.167,173.163,162.226,173.351Z" transform="translate(-127.275 -135.533)" fill="#fff7ae" fill-rule="evenodd"/>
      <path id="Path_79760" data-name="Path 79760" d="M160.153,169.566c-.1.019-.289-.078-.377-.33a1.437,1.437,0,0,1,.261-1.206,2.049,2.049,0,0,1,.39,1.051C160.418,169.316,160.345,169.531,160.153,169.566Z" transform="translate(-125.325 -131.839)" fill="#fff7ae" fill-rule="evenodd"/>
      <path id="Path_79761" data-name="Path 79761" d="M159.126,177.56c.022.1.187.235.452.215s.582-.162,1.006-.715a2.053,2.053,0,0,0-1.12.056C159.244,177.219,159.1,177.368,159.126,177.56Z" transform="translate(-124.85 -138.881)" fill="#fff7ae" fill-rule="evenodd"/>
      <path id="Path_79762" data-name="Path 79762" d="M157.18,173.512c-.1.013-.284-.1-.358-.351a1.444,1.444,0,0,1,.334-1.191,2.069,2.069,0,0,1,.325,1.077C157.46,173.286,157.372,173.484,157.18,173.512Z" transform="translate(-123.02 -134.93)" fill="#fff7ae" fill-rule="evenodd"/>
      <path id="Path_79763" data-name="Path 79763" d="M155.769,181.609a.412.412,0,0,0,.431.243c.258,0,.59-.127,1.047-.646a1.991,1.991,0,0,0-1.122,0C155.909,181.277,155.741,181.417,155.769,181.609Z" transform="translate(-122.216 -142.11)" fill="#fff7ae" fill-rule="evenodd"/>
      <path id="Path_79764" data-name="Path 79764" d="M153.972,177.3c-.1,0-.278-.112-.336-.373s-.011-.6.4-1.167a2.049,2.049,0,0,1,.263,1.09C154.265,177.089,154.166,177.285,153.972,177.3Z" transform="translate(-120.529 -137.904)" fill="#fff7ae" fill-rule="evenodd"/>
      <path id="Path_79765" data-name="Path 79765" d="M152.274,185.3c.011.1.162.254.431.261s.594-.106,1.077-.616a2.069,2.069,0,0,0-1.12-.05C152.429,184.98,152.252,185.113,152.274,185.3Z" transform="translate(-119.475 -145.019)" fill="#fff7ae" fill-rule="evenodd"/>
      <path id="Path_79766" data-name="Path 79766" d="M150.554,180.946c-.1,0-.276-.121-.323-.383s.013-.6.446-1.152a2.019,2.019,0,0,1,.215,1.1C150.853,180.748,150.747,180.939,150.554,180.946Z" transform="translate(-117.863 -140.768)" fill="#fff7ae" fill-rule="evenodd"/>
      <path id="Path_79767" data-name="Path 79767" d="M178.811,113.39c.1,0,.278-.112.336-.373s0-.6-.4-1.167a2.059,2.059,0,0,0-.261,1.092C178.518,113.185,178.617,113.39,178.811,113.39Z" transform="translate(-140.031 -87.759)" fill="#fff7ae" fill-rule="evenodd"/>
      <path id="Path_79782" data-name="Path 79782" d="M120.839,149.18v-.11h-.489c.03.013.454,0,.487,0A.185.185,0,0,0,120.839,149.18Z" transform="translate(-94.428 -116.963)" fill="#ec3237" fill-rule="evenodd"/>
      <path id="Path_79783" data-name="Path 79783" d="M132.552,149.209c.011-.019,0-.024,0-.052a.351.351,0,0,0,0-.047h0Z" transform="translate(-104.001 -116.994)" fill="#ec3237" fill-rule="evenodd"/>
      <g id="Group_37843" data-name="Group 37843" transform="translate(20.214 23.772)">
        <path id="Path_79768" data-name="Path 79768" d="M103.731,110.851l3.231,2.346,3.231,2.343.056.041-.022.065-1.232,3.793-1.232,3.8-.022.065H99.617l-.022-.065-1.232-3.8-1.232-3.793-.022-.065.056-.041L100.4,113.2l3.231-2.346.056-.041.056.041Zm1.938,7.607-1.738-.566,3.709,5.1,1.176-3.618,1.174-3.616-6,1.938,1.74.566-.058.179Zm-2.29-.745-6-1.938,1.174,3.616,1.176,3.618,3.711-5.107-.142.047-.058-.179.142-.047Zm-5.953-2.124,6,1.938-.907-1.247.153-.11.9,1.247v-6.309l-3.078,2.236Zm6.337,1.833,1.027-1.415.153.11-1.023,1.411,6-1.938-3.076-2.238-3.084-2.242Zm-.19.579-3.709,5.1h7.607l-3.709-5.1v1.762h-.19Z" transform="translate(-96.408 -110.069)" fill="#fff7ae" fill-rule="evenodd"/>
        <path id="Path_79769" data-name="Path 79769" d="M117.147,129.54a2.867,2.867,0,1,1-2.867,2.867A2.867,2.867,0,0,1,117.147,129.54Z" transform="translate(-109.88 -124.765)" fill="#fff7ae" fill-rule="evenodd"/>
        <path id="Path_79772" data-name="Path 79772" d="M119.791,131.312a2.654,2.654,0,1,0,.775,1.874A2.653,2.653,0,0,0,119.791,131.312Z" transform="translate(-110.648 -125.544)" fill="#ec3237" fill-rule="evenodd"/>
        <path id="Path_79773" data-name="Path 79773" d="M118.162,134.482l-.022-.015-.032-.026-.041-.039a.728.728,0,0,1-.215-.538.745.745,0,0,1,.215-.5.724.724,0,0,1,1.154.174l.017.032.015.034.032.1.013.075a.724.724,0,0,1-.013.289v.015l-.108.228v.013c-.013.015-.022.032-.032.047h0l-.1.093-.017.013h.073a.732.732,0,0,1,.215.022.4.4,0,0,1-.017-.11.491.491,0,0,1,.155-.386.5.5,0,0,1,.821.181.521.521,0,0,1-.078.506.39.39,0,0,1,.239.108,2.017,2.017,0,0,1,.248.332l.149.215h0l.123.17a1.17,1.17,0,0,1,.116.174.351.351,0,0,1-.112.431c-.125.093-.228.056-.358.065a.489.489,0,0,1,0,.149v.015l-.034.09-.1.146-.047.041a.465.465,0,0,1-.258.093,1.829,1.829,0,0,1-.362,0v.011a.2.2,0,0,1-.073.112h-.011l-.1.037h0a1.2,1.2,0,0,1-.153,0h-1.706a1.269,1.269,0,0,1-.157,0h-.011l-.127-.058v-.011a.183.183,0,0,1-.045-.082v-.011a1.993,1.993,0,0,1-.362,0,.416.416,0,0,1-.3-.127l-.1-.153a.5.5,0,0,1-.039-.25.735.735,0,0,1-.306-.037l-.026-.013a.353.353,0,0,1-.136-.454,2.724,2.724,0,0,1,.233-.334c.062-.084.123-.17.183-.254a2.107,2.107,0,0,1,.215-.289.377.377,0,0,1,.243-.112.528.528,0,0,1-.08-.506.5.5,0,0,1,.823-.181.5.5,0,0,1,.153.386.407.407,0,0,1-.015.11.736.736,0,0,1,.2-.024Z" transform="translate(-111.315 -127.596)" fill="#fff7ae" fill-rule="evenodd"/>
        <path id="Path_79774" data-name="Path 79774" d="M117.277,135.113a.483.483,0,0,1-.144-.112.448.448,0,0,1-.069-.431.432.432,0,1,1,.747.418.412.412,0,0,1-.125.112h0l-.043.022h0l.056.017a.519.519,0,0,1,.48-.246H119.2a.555.555,0,0,1,.252.041.536.536,0,0,1,.179.125l.032.039.022.032.054-.013h0l-.043-.022h0a.381.381,0,0,1-.123-.112.432.432,0,1,1,.532.129h.058a.4.4,0,0,1,.334.093,2.485,2.485,0,0,1,.239.321l.151.215h0l.121.168h0a1.316,1.316,0,0,1,.108.162.278.278,0,0,1-.088.34c-.11.082-.235.039-.355.054h-.045a.454.454,0,0,1,.011.2h0l-.052.136h0v.011h0l-.022.026h.019l-.03.013a.342.342,0,0,1-.047.043.4.4,0,0,1-.215.078,3.286,3.286,0,0,1-.418,0,.112.112,0,0,1,0,.058.155.155,0,0,1-.05.08l-.088.028a1.084,1.084,0,0,1-.144,0H117.88a1.117,1.117,0,0,1-.146,0l-.1-.047a.145.145,0,0,1-.03-.06.125.125,0,0,1-.013-.056,3.715,3.715,0,0,1-.431,0,.357.357,0,0,1-.261-.114l-.041-.019h-.028a.431.431,0,0,1-.08-.4h-.032a.839.839,0,0,1-.33-.026l-.019-.011a.28.28,0,0,1-.11-.358,2.955,2.955,0,0,1,.228-.325c.062-.084.121-.17.183-.256a2.462,2.462,0,0,1,.215-.278.4.4,0,0,1,.33-.095Zm.082.476-.491.646a.175.175,0,0,1,0,.039c.075-.106.166-.215.215-.291l.28-.39Zm3.177.76.026.037a.217.217,0,0,0-.026-.037Zm-2.514-2.139a.657.657,0,0,0,.192.487l.039.037.026.022a.724.724,0,0,0,.215.114.668.668,0,0,0,.47-.045l.075-.043h0l.024-.017.1-.09h0c.013-.017.019-.032.03-.045h0l.1-.215h0a.685.685,0,0,0,.013-.265l-.013-.071h0l-.024-.073h0l-.015-.03-.015-.032a.646.646,0,0,0-1.038-.155A.672.672,0,0,0,118.022,134.211Z" transform="translate(-111.409 -127.943)" fill="#fff7ae" fill-rule="evenodd"/>
        <path id="Path_79776" data-name="Path 79776" d="M119.22,141.956h.489v.11c.022.088.14.065.215.065h1.706c.095,0,.2.024.215-.067v-.108h.48a.314.314,0,0,0,.19-.065c.054-.043.028-.024.069-.071h0l.045-.116a.36.36,0,0,0-.019-.2l-.127-.194h0l-.015-.017-.513-.713h0l-.153-.215h0l-.108-.153a.369.369,0,0,0-.028-.032.431.431,0,0,0-.153-.108A.478.478,0,0,0,121.3,140h-1.032c-.349,0-.4.2-.592.45l-.431.6a3.571,3.571,0,0,0-.314.459.338.338,0,0,0,.289.448Z" transform="translate(-113.515 -132.972)" fill="#ec3237" fill-rule="evenodd"/>
        <path id="Path_79777" data-name="Path 79777" d="M124.734,143.967H122.58v-1.292l.026-.054c.037-.039.047-.037.121-.034h1.848c.123,0,.153.022.153.153C124.732,143.151,124.734,143.564,124.734,143.967Z" transform="translate(-116.392 -135.001)" fill="#fff7ae" fill-rule="evenodd"/>
        <path id="Path_79778" data-name="Path 79778" d="M132.911,141.252c.019.024.045.062.065.09a3.384,3.384,0,0,1,.366,0c.065,0,.131-.013.153.037a6.446,6.446,0,0,1,0,.646.109.109,0,0,0,.019.082.5.5,0,0,1,.069.114c.116-.015.237.022.323-.041a.215.215,0,0,0,.069-.258,1.212,1.212,0,0,0-.1-.149h0l-.121-.17h0l-.151-.215c-.037-.052-.192-.276-.226-.308-.09-.08-.142-.078-.291-.078a3.2,3.2,0,0,0-.355,0l.09.127Z" transform="translate(-124.356 -133.754)" fill="#ec3237" fill-rule="evenodd"/>
        <path id="Path_79779" data-name="Path 79779" d="M131.517,137.5a.368.368,0,0,0,.073.2.319.319,0,0,0,.108.1h0l.037.019a.377.377,0,0,0,.431-.106.383.383,0,0,0,.056-.368.364.364,0,0,0-.7.153Z" transform="translate(-123.403 -130.703)" fill="#ec3237" fill-rule="evenodd"/>
        <path id="Path_79780" data-name="Path 79780" d="M124.858,134.394a.59.59,0,0,0,.174.442l.037.032a.14.14,0,0,0,.017.015.583.583,0,0,0,.2.1.6.6,0,0,0,.418-.037l.069-.041.022-.015.093-.086c.017-.019,0-.022.03-.043l.095-.2a.565.565,0,0,0,.013-.239l-.013-.067h0l-.022-.069-.013-.026-.015-.032a.584.584,0,0,0-.93-.136A.6.6,0,0,0,124.858,134.394Z" transform="translate(-118.179 -128.126)" fill="#ec3237" fill-rule="evenodd"/>
        <path id="Path_79784" data-name="Path 79784" d="M118.867,143.248l.521-.681h-.364a.239.239,0,0,0-.134.015c-.041.03-.024.123-.024.2Z" transform="translate(-113.476 -134.983)" fill="#fff7ae" fill-rule="evenodd"/>
        <path id="Path_79785" data-name="Path 79785" d="M133.87,142.55l.53.734a.133.133,0,0,1,0-.065v-.646c0-.041-.088-.037-.153-.037A3.375,3.375,0,0,0,133.87,142.55Z" transform="translate(-125.25 -134.962)" fill="#fff7ae" fill-rule="evenodd"/>
        <path id="Path_79786" data-name="Path 79786" d="M121,137.506a.368.368,0,0,1-.073.2.3.3,0,0,1-.108.1h0l-.037.019a.375.375,0,0,1-.431-.106.39.39,0,0,1-.058-.368.362.362,0,0,1,.594-.131A.355.355,0,0,1,121,137.506Z" transform="translate(-114.584 -130.706)" fill="#ec3237" fill-rule="evenodd"/>
        <path id="Path_79787" data-name="Path 79787" d="M154.422,129.14a.862.862,0,1,1-.862.862A.862.862,0,0,1,154.422,129.14Z" transform="translate(-140.699 -124.451)" fill="#fff7ae" fill-rule="evenodd"/>
        <path id="Path_79788" data-name="Path 79788" d="M124.452,107.37a.862.862,0,1,1-.862.862A.862.862,0,0,1,124.452,107.37Z" transform="translate(-117.184 -107.37)" fill="#fff7ae" fill-rule="evenodd"/>
        <path id="Path_79789" data-name="Path 79789" d="M94.712,128.85a.862.862,0,1,1-.862.862A.862.862,0,0,1,94.712,128.85Z" transform="translate(-93.85 -124.224)" fill="#fff7ae" fill-rule="evenodd"/>
        <path id="Path_79790" data-name="Path 79790" d="M105.932,164.36a.862.862,0,1,1-.862.862A.862.862,0,0,1,105.932,164.36Z" transform="translate(-102.653 -152.085)" fill="#fff7ae" fill-rule="evenodd"/>
        <path id="Path_79791" data-name="Path 79791" d="M142.972,164.36a.862.862,0,1,1-.862.862A.862.862,0,0,1,142.972,164.36Z" transform="translate(-131.716 -152.085)" fill="#fff7ae" fill-rule="evenodd"/>
        <path id="Path_79781" data-name="Path 79781" d="M117.6,141.343c.058-.058.054-.078.106-.136h0l.03-.045h0l.112-.153a3.371,3.371,0,0,0-.362,0c-.131,0-.2,0-.282.078-.043.039-.317.431-.386.523a2.872,2.872,0,0,0-.215.319.215.215,0,0,0,.084.267h.015a.847.847,0,0,0,.3.017c0-.015,0-.017.015-.032h0v-.013c.043-.082.054-.047.054-.129v-.463c0-.08-.017-.172.024-.2a.239.239,0,0,1,.134-.015Z" transform="translate(-111.692 -133.759)" fill="#ec3237" fill-rule="evenodd"/>
      </g>
      <path id="Path_79792" data-name="Path 79792" d="M70.194,108.678a2.783,2.783,0,0,0-.319-.909L69.444,107l-.523.713a2.723,2.723,0,0,0-.508,1.077l-.454-.153-.228-.08v.241a24.735,24.735,0,0,0,2.77,11.5,19.707,19.707,0,0,0,3.341,4.512,1.386,1.386,0,0,0,2.074-.142c.431-.454.862-1.374.327-1.908a16.719,16.719,0,0,1-2.972-3.954,21.6,21.6,0,0,1-2.391-10.168v-.265Z" transform="translate(-53.142 -83.954)" fill="#fff7ae" fill-rule="evenodd"/>
      <path id="Path_79793" data-name="Path 79793" d="M74.571,125.862a19.525,19.525,0,0,1-3.315-4.471,24.561,24.561,0,0,1-2.746-11.415c.258.09.547.185.659.228a2.223,2.223,0,0,1,.5-1.2l.366-.5.306.538a2.512,2.512,0,0,1,.321,1.077l.088-.043.566-.258a21.823,21.823,0,0,0,2.412,10.25,16.884,16.884,0,0,0,3,3.993c.364.36.215,1.107-.332,1.669A1.21,1.21,0,0,1,74.571,125.862Z" transform="translate(-53.754 -85.131)" fill="#338c26" fill-rule="evenodd"/>
      <path id="Path_79794" data-name="Path 79794" d="M71.477,119.172a.414.414,0,0,1-.5-.058,1.476,1.476,0,0,1-.47-1.144,1.976,1.976,0,0,1,.918.646C71.568,118.821,71.621,119.032,71.477,119.172Z" transform="translate(-55.323 -92.561)" fill="#fff7ae" fill-rule="evenodd"/>
      <path id="Path_79795" data-name="Path 79795" d="M75.376,118.792a.416.416,0,0,0,.487-.1,1.469,1.469,0,0,0,.353-1.182,2.041,2.041,0,0,0-.849.732C75.262,118.451,75.228,118.667,75.376,118.792Z" transform="translate(-59.063 -92.2)" fill="#fff7ae" fill-rule="evenodd"/>
      <path id="Path_79796" data-name="Path 79796" d="M71.81,124.343a.411.411,0,0,1-.5-.037c-.215-.14-.431-.431-.51-1.126a2.068,2.068,0,0,1,.941.614C71.879,124,71.942,124.2,71.81,124.343Z" transform="translate(-55.551 -96.649)" fill="#fff7ae" fill-rule="evenodd"/>
      <path id="Path_79797" data-name="Path 79797" d="M75.8,123.668a.418.418,0,0,0,.487-.123,1.477,1.477,0,0,0,.31-1.2,2.064,2.064,0,0,0-.823.762C75.669,123.332,75.643,123.548,75.8,123.668Z" transform="translate(-59.386 -95.998)" fill="#fff7ae" fill-rule="evenodd"/>
      <path id="Path_79798" data-name="Path 79798" d="M72.323,129.5a.416.416,0,0,1-.5-.022c-.215-.129-.431-.414-.551-1.1a2.107,2.107,0,0,1,.963.577C72.379,129.152,72.448,129.348,72.323,129.5Z" transform="translate(-55.92 -100.721)" fill="#fff7ae" fill-rule="evenodd"/>
      <path id="Path_79799" data-name="Path 79799" d="M76.422,128.546c.084.062.3.052.482-.14a1.447,1.447,0,0,0,.265-1.206,2.042,2.042,0,0,0-.793.793C76.282,128.217,76.265,128.434,76.422,128.546Z" transform="translate(-59.87 -99.803)" fill="#fff7ae" fill-rule="evenodd"/>
      <path id="Path_79800" data-name="Path 79800" d="M73.056,134.657a.416.416,0,0,1-.5,0c-.215-.123-.452-.4-.594-1.077a2.044,2.044,0,0,1,.984.538C73.1,134.3,73.175,134.5,73.056,134.657Z" transform="translate(-56.461 -104.809)" fill="#fff7ae" fill-rule="evenodd"/>
      <path id="Path_79801" data-name="Path 79801" d="M77.262,133.4a.416.416,0,0,0,.476-.159,1.461,1.461,0,0,0,.215-1.217,2.052,2.052,0,0,0-.76.825C77.105,133.071,77.105,133.289,77.262,133.4Z" transform="translate(-60.52 -103.585)" fill="#fff7ae" fill-rule="evenodd"/>
      <path id="Path_79802" data-name="Path 79802" d="M73.978,139.728a.414.414,0,0,1-.5.019c-.215-.114-.467-.379-.646-1.058a2.035,2.035,0,0,1,1,.5C74,139.371,74.09,139.571,73.978,139.728Z" transform="translate(-57.144 -108.818)" fill="#fff7ae" fill-rule="evenodd"/>
      <path id="Path_79803" data-name="Path 79803" d="M78.334,138.212c.088.054.3.026.467-.179a1.446,1.446,0,0,0,.17-1.223,2.028,2.028,0,0,0-.728.862C78.168,137.893,78.168,138.111,78.334,138.212Z" transform="translate(-61.353 -107.343)" fill="#fff7ae" fill-rule="evenodd"/>
      <path id="Path_79804" data-name="Path 79804" d="M75.208,144.781a.414.414,0,0,1-.5.041,1.5,1.5,0,0,1-.678-1.032,2.055,2.055,0,0,1,1.023.459C75.221,144.423,75.316,144.619,75.208,144.781Z" transform="translate(-58.085 -112.82)" fill="#fff7ae" fill-rule="evenodd"/>
      <path id="Path_79805" data-name="Path 79805" d="M79.621,142.968c.09.05.3.015.461-.2a1.44,1.44,0,0,0,.121-1.23,2.064,2.064,0,0,0-.694.883C79.442,142.656,79.451,142.873,79.621,142.968Z" transform="translate(-62.353 -111.054)" fill="#fff7ae" fill-rule="evenodd"/>
      <path id="Path_79806" data-name="Path 79806" d="M76.631,149.779a.411.411,0,0,1-.5.062c-.23-.095-.5-.34-.724-1a2.04,2.04,0,0,1,1.042.414C76.629,149.422,76.73,149.613,76.631,149.779Z" transform="translate(-59.168 -116.782)" fill="#fff7ae" fill-rule="evenodd"/>
      <path id="Path_79807" data-name="Path 79807" d="M81.151,147.727c.093.047.3,0,.452-.215a1.436,1.436,0,0,0,.067-1.232,1.991,1.991,0,0,0-.646.911C80.959,147.413,80.977,147.63,81.151,147.727Z" transform="translate(-63.546 -114.774)" fill="#fff7ae" fill-rule="evenodd"/>
      <path id="Path_79808" data-name="Path 79808" d="M78.31,154.705a.418.418,0,0,1-.5.084c-.233-.086-.513-.319-.765-.969a2.048,2.048,0,0,1,1.058.368C78.291,154.348,78.4,154.535,78.31,154.705Z" transform="translate(-60.455 -120.69)" fill="#fff7ae" fill-rule="evenodd"/>
      <path id="Path_79809" data-name="Path 79809" d="M82.882,152.291c.095.043.3-.011.431-.237a1.466,1.466,0,0,0,.013-1.234,2.04,2.04,0,0,0-.614.939C82.678,152,82.7,152.211,82.882,152.291Z" transform="translate(-64.887 -118.336)" fill="#fff7ae" fill-rule="evenodd"/>
      <path id="Path_79810" data-name="Path 79810" d="M80.261,159.547a.416.416,0,0,1-.491.106c-.237-.075-.526-.293-.81-.933a2.01,2.01,0,0,1,1.077.319C80.218,159.19,80.338,159.37,80.261,159.547Z" transform="translate(-61.953 -124.534)" fill="#fff7ae" fill-rule="evenodd"/>
      <path id="Path_79811" data-name="Path 79811" d="M84.894,156.813c.1.037.3-.026.431-.258a1.444,1.444,0,0,0-.043-1.234,2.052,2.052,0,0,0-.569.967C84.677,156.526,84.713,156.742,84.894,156.813Z" transform="translate(-66.457 -121.866)" fill="#fff7ae" fill-rule="evenodd"/>
      <path id="Path_79812" data-name="Path 79812" d="M82.449,164.376a.416.416,0,0,1-.482.144c-.241-.058-.547-.254-.877-.862a2.041,2.041,0,0,1,1.1.237C82.387,164.028,82.52,164.2,82.449,164.376Z" transform="translate(-63.624 -128.407)" fill="#fff7ae" fill-rule="evenodd"/>
      <path id="Path_79813" data-name="Path 79813" d="M87.183,161.146c.1.03.3-.047.409-.289a1.44,1.44,0,0,0-.136-1.228,2.053,2.053,0,0,0-.5,1.006C86.946,160.877,87,161.088,87.183,161.146Z" transform="translate(-68.229 -125.248)" fill="#fff7ae" fill-rule="evenodd"/>
      <path id="Path_79814" data-name="Path 79814" d="M84.947,168.922a.411.411,0,0,1-.474.164c-.246-.047-.558-.23-.913-.831a2.037,2.037,0,0,1,1.1.192C84.861,168.573,85,168.739,84.947,168.922Z" transform="translate(-65.562 -132.007)" fill="#fff7ae" fill-rule="evenodd"/>
      <path id="Path_79815" data-name="Path 79815" d="M89.668,165.445c.1.026.3-.06.4-.306a1.442,1.442,0,0,0-.187-1.219,2.084,2.084,0,0,0-.452,1.025C89.419,165.189,89.481,165.4,89.668,165.445Z" transform="translate(-70.165 -128.614)" fill="#fff7ae" fill-rule="evenodd"/>
      <path id="Path_79816" data-name="Path 79816" d="M87.648,173.351c-.028.1-.2.215-.465.19s-.571-.194-.963-.773a2.048,2.048,0,0,1,1.116.123C87.549,173.01,87.7,173.163,87.648,173.351Z" transform="translate(-67.65 -135.533)" fill="#fff7ae" fill-rule="evenodd"/>
      <path id="Path_79817" data-name="Path 79817" d="M92.42,169.566c.1.019.291-.078.379-.33a1.433,1.433,0,0,0-.263-1.206,2.034,2.034,0,0,0-.388,1.051C92.155,169.316,92.23,169.531,92.42,169.566Z" transform="translate(-72.301 -131.839)" fill="#fff7ae" fill-rule="evenodd"/>
      <path id="Path_79818" data-name="Path 79818" d="M90.688,177.56c-.022.1-.185.235-.45.215s-.582-.162-1.008-.715a2.054,2.054,0,0,1,1.12.056C90.563,177.219,90.723,177.368,90.688,177.56Z" transform="translate(-70.011 -138.881)" fill="#fff7ae" fill-rule="evenodd"/>
      <path id="Path_79819" data-name="Path 79819" d="M95.408,173.512c.1.013.284-.1.358-.351a1.444,1.444,0,0,0-.334-1.191,2.048,2.048,0,0,0-.325,1.077C95.128,173.286,95.214,173.484,95.408,173.512Z" transform="translate(-74.619 -134.93)" fill="#fff7ae" fill-rule="evenodd"/>
      <path id="Path_79820" data-name="Path 79820" d="M93.948,181.609c-.015.1-.172.246-.431.243s-.59-.127-1.047-.646a1.984,1.984,0,0,1,1.12,0C93.81,181.277,93.978,181.417,93.948,181.609Z" transform="translate(-72.553 -142.11)" fill="#fff7ae" fill-rule="evenodd"/>
      <path id="Path_79821" data-name="Path 79821" d="M98.617,177.3c.1,0,.278-.112.336-.373s0-.6-.4-1.167a2.034,2.034,0,0,0-.261,1.09C98.324,177.089,98.434,177.285,98.617,177.3Z" transform="translate(-77.111 -137.904)" fill="#fff7ae" fill-rule="evenodd"/>
      <path id="Path_79822" data-name="Path 79822" d="M97.348,185.3c-.013.1-.164.254-.431.261s-.594-.106-1.077-.616a2.069,2.069,0,0,1,1.12-.05C97.2,184.98,97.369,185.113,97.348,185.3Z" transform="translate(-75.198 -145.019)" fill="#fff7ae" fill-rule="evenodd"/>
      <path id="Path_79823" data-name="Path 79823" d="M102.038,180.946c.1,0,.274-.121.323-.383s-.013-.6-.446-1.152a2,2,0,0,0-.215,1.1C101.736,180.748,101.842,180.939,102.038,180.946Z" transform="translate(-79.78 -140.768)" fill="#fff7ae" fill-rule="evenodd"/>
      <path id="Path_79824" data-name="Path 79824" d="M73.779,113.39c-.1,0-.28-.112-.336-.373a1.484,1.484,0,0,1,.4-1.167,2.038,2.038,0,0,1,.261,1.092C74.072,113.185,73.98,113.39,73.779,113.39Z" transform="translate(-57.61 -87.759)" fill="#fff7ae" fill-rule="evenodd"/>
      <path id="Path_79831" data-name="Path 79831" d="M-38.624-15.378l1.363-4.222h-1.182l-.826,2.907-.82-2.907h-1.182l1.363,4.222Zm4.083-2.1-1.49-2.123h-.838v4.222h1.08V-17.5l1.49,2.123h.832V-19.6h-1.073Zm4.734.959a1.48,1.48,0,0,0,.042-.374,1.555,1.555,0,0,0-.44-1.134,1.491,1.491,0,0,0-1.116-.452,1.545,1.545,0,0,0-1.152.458,1.565,1.565,0,0,0-.452,1.14,1.527,1.527,0,0,0,.458,1.14,1.7,1.7,0,0,0,1.23.446,1.556,1.556,0,0,0,1.3-.561l-.724-.507a.78.78,0,0,1-.549.211.646.646,0,0,1-.675-.368Zm-2.093-.694a.555.555,0,0,1,.591-.422.533.533,0,0,1,.567.422Zm2.666,1.833h1.08V-19.6h-1.08Zm1.8-4.222v4.222h1.719a1.943,1.943,0,0,0,1.459-.6,2.089,2.089,0,0,0,.591-1.508,2.075,2.075,0,0,0-.591-1.5,1.948,1.948,0,0,0-1.459-.609Zm1.11,3.178v-2.135h.609a.933.933,0,0,1,.718.3,1.064,1.064,0,0,1,.277.772,1.088,1.088,0,0,1-.277.778.95.95,0,0,1-.718.289Z" transform="translate(59.952 38.492)" fill="#fff7ae"/>
    </g>
  </g>
</svg>